<?xml version="1.0" standalone="no"?><!DOCTYPE svg PUBLIC "-//W3C//DTD SVG 1.1//EN" "http://www.w3.org/Graphics/SVG/1.1/DTD/svg11.dtd"><svg class="icon" width="200px" height="200.00px" viewBox="0 0 1024 1024" version="1.1" xmlns="http://www.w3.org/2000/svg"><path d="M611.702 44.963l263.203 149.544c60.979 35.06 98.35 99.414 98.154 168.892v299.056c0.037 69.658-37.691 134.044-98.987 168.902l-262.37 149.36c-61.333 34.828-136.864 34.828-198.176 0l-263.61-149.55c-61.285-34.859-99.008-99.246-98.977-168.915V363.399c-0.032-69.657 37.691-134.033 98.977-168.892l263.61-149.544c61.312-34.834 136.843-34.834 198.176 0" fill="#E94B48" /><path d="M799.555 525.142h-75.163v-12.625c-0.063-7.043-0.449-14.072-1.224-21.083h76.387c9.521 0 17.24 7.591 17.24 16.948 0 9.36-7.719 16.953-17.24 16.953v-0.193zM675.443 382.687a203.922 203.922 0 0 0-24.826-24.042l55.506-54.195c6.885-6.573 17.819-6.573 24.67 0 3.311 3.201 5.177 7.555 5.177 12.128 0 4.549-1.866 8.926-5.177 12.11l-55.35 53.999z m14.246 334.954h40.105c9.518 0 17.236 7.586 17.236 16.95 0 9.353-7.719 16.944-17.236 16.944H302.196c-9.517 0-17.235-7.592-17.235-16.944 0-9.364 7.719-16.95 17.235-16.95h40.106V514.688c0-94.183 77.666-170.533 173.495-170.533 95.841 0 173.475 76.35 173.475 170.533V717.06l0.417 0.581zM655.44 525.142c1.93-49.996-24.12-97.019-67.859-122.568-43.74-25.55-98.223-25.55-141.962 0-43.755 25.549-69.773 72.572-67.844 122.568v191.725H655.44V525.142z m-135.735-72.124c6.785-6.557 17.668-6.557 24.458 0 3.248 3.152 5.083 7.444 5.083 11.916 0 4.487-1.835 8.784-5.083 11.931l-38.098 37.824h62.345c4.634-0.047 9.068 1.719 12.321 4.903a16.723 16.723 0 0 1 5.108 12.025c0 5.474-1.317 9.585-5.108 14.927l-68.444 75.705c-7.086 6.82-18.379 6.82-25.455 0a17.29 17.29 0 0 1-5.24-12.411c0-4.63 1.882-9.101 5.24-12.386l50.124-50.908s-66.284 0-69.979-0.132c-8.204 0-14.246-2.891-17.43-9.321-3.169-6.496-1.804-14.215 3.406-19.255l66.752-64.818z m-20.056-141.477V231.75c0.965-8.715 8.441-15.311 17.351-15.311 8.911 0 16.387 6.596 17.32 15.311v80.001h-34.671v-0.21zM360.54 379.722l-56.332-54.979a16.718 16.718 0 0 1 0-23.832c6.789-6.559 17.673-6.559 24.461 0l56.118 56.15a206.58 206.58 0 0 0-24.842 23.451l0.595-0.79z m-52.328 133.58v12.628h-75.368c-6.161 0-11.853-3.233-14.926-8.474a16.692 16.692 0 0 1 0-16.955c3.074-5.24 8.766-8.468 14.926-8.468h76.379a201.78 201.78 0 0 0-1.205 21.079l0.194 0.19z" fill="#FFFFFF" /></svg>