<?xml version="1.0" standalone="no"?><!DOCTYPE svg PUBLIC "-//W3C//DTD SVG 1.1//EN" "http://www.w3.org/Graphics/SVG/1.1/DTD/svg11.dtd"><svg class="icon" width="200px" height="200.00px" viewBox="0 0 1024 1024" version="1.1" xmlns="http://www.w3.org/2000/svg"><path d="M357.885 49.289h285.276c173.87 0 316.906 143.086 316.906 317.854v285.276c0 173.831-143.086 316.925-316.906 316.925h-285.276c-174.749 0-317.854-143.086-317.854-316.925v-285.276c0-174.749 143.086-317.854 317.854-317.854z" fill="#E05A55" /><path d="M708.284 751.971h-138.54c-18.985 0-35.317-15.371-35.317-34.429v-138.54c0-18.985 16.279-35.317 35.317-35.317h138.54c18.985 0 34.429 16.326 34.429 35.317v138.54c0 18.985-15.381 34.429-34.429 34.429zM708.284 596.247c0 0 0-0.001 0-0.001 0-9.522-7.677-17.171-17.171-17.171 0 0-0.001 0-0.001 0h-104.119c-0.007 0-0.327 0-0.547 0-9.243 0-16.675 7.463-16.675 16.675 0 0.222 0 0.349 0 0.583v104.089c0 9.058 7.21 17.171 17.219 17.171h104.119c9.334-0.288 16.928-7.846 17.219-17.152v-104.199zM708.284 474.891h-138.54c-19.487-0.001-35.276-15.825-35.317-35.317v-138.54c0-18.999 16.279-34.429 35.317-34.429h138.54c18.985 0 34.429 15.371 34.429 34.429v138.54c0 19.911-15.381 35.317-34.429 35.317zM708.284 318.245c-0.307-9.334-7.866-16.894-17.219-17.171h-104.199c0 0-0.001 0-0.001 0-9.522 0-17.171 7.677-17.171 17.171 0 0 0 0 0 0v104.119c0 9.956 7.21 17.219 17.219 17.219h104.119c0 0 0.001 0 0.001 0 9.522 0 17.171-7.677 17.171-17.171 0 0 0-0.001 0-0.001v-104.119zM430.283 751.971h-138.54c0 0-0.001 0-0.001 0-18.973 0-34.357-15.381-34.357-34.357 0 0 0-0.001 0-0.001v-138.54c0-18.985 15.381-35.317 34.429-35.317h138.54c19.93 0 35.317 16.326 35.317 35.317v138.54c0.001 18.985-15.371 34.429-35.317 34.429zM430.283 596.247c0-0.007 0-0.349 0-0.583 0-9.243-7.463-16.654-16.654-16.654-0.222 0-0.372 0-0.621 0h-104.089c0 0-0.001 0-0.001 0-9.522 0-17.171 7.677-17.171 17.171 0 0 0 0.001 0 0.001v104.119c0 9.058 8.178 17.171 17.219 17.171h104.119c0 0 0.001 0 0.001 0 9.522 0 17.171-7.677 17.171-17.171 0 0 0 0 0 0v-104.119zM430.283 474.891h-138.54c-18.985 0-34.429-15.371-34.429-35.317v-138.54c0-18.999 15.381-34.429 34.429-34.429h138.54c19.93 0 35.317 15.371 35.317 34.429v138.54c0 0.006 0 0.327 0 0.547 0 19.205-15.58 34.737-34.737 34.737-0.222 0-0.349 0-0.583 0zM430.283 318.245c0 0 0 0 0 0 0-9.522-7.677-17.171-17.171-17.171 0 0-0.001 0-0.001 0h-104.119c-9.334 0.288-16.928 7.846-17.219 17.152v104.199c0 9.956 8.178 17.219 17.219 17.219h104.119c0.007 0 0.327 0 0.547 0 9.243 0 16.675-7.463 16.675-16.675 0-0.222 0-0.349 0-0.583v-104.089z" fill="#FFFFFF" /></svg>