<?xml version="1.0" standalone="no"?><!DOCTYPE svg PUBLIC "-//W3C//DTD SVG 1.1//EN" "http://www.w3.org/Graphics/SVG/1.1/DTD/svg11.dtd"><svg class="icon" width="200px" height="200.00px" viewBox="0 0 1024 1024" version="1.1" xmlns="http://www.w3.org/2000/svg"><path d="M896.483256 191.467753v64.081481c0 70.584592-172.214247 128.160915-384.484791 128.160915-212.267475 0-384.483768-57.577347-384.483768-128.160915v-64.081481c0-70.583568 172.216293-128.160915 384.483768-128.160915 212.270545 0 384.484791 57.577347 384.484791 128.160915z m0 171.213453v85.1094c0 70.583568-172.214247 128.160915-384.484791 128.160915-212.267475 0-384.483768-57.577347-384.483768-128.160915v-85.1094c82.608439 58.07365 233.794767 85.1094 384.483768 85.1094 150.691047 0 301.878398-27.03575 384.484791-85.1094z m0 192.241372v85.110424c0 70.584592-172.214247 128.158868-384.484791 128.158868-212.267475 0-384.483768-57.5753-384.483768-128.158868v-85.110424c82.608439 58.07365 233.794767 85.110423 384.483768 85.110424 150.691047 0 301.878398-27.036773 384.484791-85.110424z m0 192.242396v85.11247c0 70.581522-172.214247 128.159892-384.484791 128.159891-212.267475 0-384.483768-57.579393-384.483768-128.159891v-85.11247c82.608439 58.075697 233.794767 85.11247 384.483768 85.11247 150.691047 0 301.878398-27.036773 384.484791-85.11247z" fill="#1296db" /></svg>