<?xml version="1.0" standalone="no"?><!DOCTYPE svg PUBLIC "-//W3C//DTD SVG 1.1//EN" "http://www.w3.org/Graphics/SVG/1.1/DTD/svg11.dtd"><svg class="icon" width="200px" height="200.00px" viewBox="0 0 1024 1024" version="1.1" xmlns="http://www.w3.org/2000/svg"><path d="M583.66976 285.16864l-229.83168 23.296a2.19136 2.19136 0 0 0-1.84832 1.78176 2.14016 2.14016 0 0 0 1.28 2.27328l179.12832 73.07776c0.28672 0.07168 0.49664 0.14336 0.77824 0.14336 0.77312 0 1.4848-0.42496 1.83808-1.13664l50.65216-96.45056c0.34816-0.63488 0.34816-1.48992-0.08192-2.05312a2.08896 2.08896 0 0 0-1.91488-0.93184zM880.75776 219.40224l-139.99104-56.3968a1.98144 1.98144 0 0 0-1.56672 0l-124.14464 49.28512a2.01216 2.01216 0 0 0-1.28 1.92c-0.08192 0.85504 0.49152 1.62816 1.19808 1.98656l140.63104 57.88672a2.73408 2.73408 0 0 0 0.77824 0.14336c0.28672 0 0.50688-0.06656 0.78848-0.14336l123.58144-50.78528c0.77312-0.27648 1.26976-1.06496 1.26976-1.98144a1.97632 1.97632 0 0 0-1.26464-1.91488z" fill="#FFFFFF" /><path d="M1013.00224 363.01312l-1.24928 0.49152c-0.51712 0.32768-0.9984 0.69632-1.5872 0.92672l-493.39392 196.096c-1.13664 0.49152-2.42176 0.71168-3.70176 0.71168s-2.55488-0.29184-3.69152-0.71168l-493.39392-196.096a10.30656 10.30656 0 0 1-4.16256-3.24608l-0.3584 77.30176c1.07008 1.60768 2.64704 2.9184 4.52096 3.71712l493.32736 196.16256c1.13664 0.41984 2.41664 0.71168 3.69152 0.71168 1.28 0 2.56-0.20992 3.69664-0.71168l493.39904-196.096c2.33984-0.92672 4.17792-2.7648 5.25824-4.97152 0.62976 1.28 0.97792 2.69824 1.12128 4.18816-0.08192 3.97312-0.08192 135.64928 0 139.6992a10.13248 10.13248 0 0 1-6.3232 9.09312l-493.38368 196.096a9.27744 9.27744 0 0 1-3.70176 0.71168c-1.28 0-2.56-0.28672-3.69664-0.71168l-493.39392-196.096a9.9328 9.9328 0 0 1-5.20192-4.95104l-0.384 82.3552c0.11776-0.3072 0.18944-0.61952 0.3328-0.91648 0.99328 2.21184 2.90816 3.97312 5.25312 4.97664l493.32736 196.096c1.13664 0.43008 2.41664 0.72192 3.69152 0.72192 1.28 0 2.56-0.20992 3.69664-0.72192l493.39904-196.096c2.33984-0.92672 4.18304-2.7648 5.25312-4.97664 0.62976 1.29024 0.98304 2.70336 1.13152 4.19328-0.08192 3.968-0.08192 135.6544 0 139.69408l2.16064-453.53984a9.984 9.984 0 0 1-5.63712 5.89824zM420.81792 68.76672a2.19136 2.19136 0 0 0-2.27328 0.49664 2.03264 2.03264 0 0 0-0.2816 2.34496l19.95776 40.05376-93.824 18.04288a1.9456 1.9456 0 0 0-1.62304 2.1248 2.06336 2.06336 0 0 0 1.92 1.98656l108.66688 7.95648 21.44256 42.75712a1.93536 1.93536 0 0 0 1.41824 1.06496c0.13824 0.06656 0.2816 0.06656 0.42496 0.06656a1.8176 1.8176 0 0 0 1.34144-0.49664l45.38368-38.27712 109.24032 8.02304a2.11456 2.11456 0 0 0 2.2016-1.56672 2.0992 2.0992 0 0 0-1.28-2.41664l-78.83264-30.464 41.97376-35.36896a2.16064 2.16064 0 0 0 0.49664-2.56 2.12992 2.12992 0 0 0-2.26304-1.13664l-94.24896 18.18112-79.84128-30.81216zM9.73824 810.66496l0.01536-3.86048-0.01536 3.86048zM1016.10496 212.9152l-0.13312-0.05632 0.02048 0.16896a1.16736 1.16736 0 0 0 0.11264-0.11264zM1019.32032 214.21568l-0.01536 3.3536 0.01536-3.3536zM375.00928 224.79872c-0.07168-13.49632-13.06112-26.1376-36.72064-35.51232-22.72768-9.088-52.49024-14.06464-83.6608-14.06464-28.9024 0-55.89504 4.4032-76.13952 12.35968-21.38112 8.3712-33.16224 20.02944-33.23904 32.73728-0.06656 13.27616 12.57472 25.7792 35.58912 35.2256 22.93248 9.29792 53.05344 14.4896 84.79744 14.4896 29.6192 0 57.09312-4.53632 77.48608-12.8512 20.59264-8.37632 31.95904-19.88096 31.88736-32.384z" fill="#FFFFFF" /><path d="M1016.48384 670.97088a11.94496 11.94496 0 0 0-1.1264-4.18816 10.0352 10.0352 0 0 1-5.25824 4.97152l-493.39904 196.096c-1.14176 0.50688-2.41664 0.7168-3.69664 0.7168-1.27488 0-2.55488-0.28672-3.69152-0.7168L15.98464 671.744a9.9584 9.9584 0 0 1-5.25312-4.97664c-0.14336 0.29696-0.21504 0.60928-0.3328 0.91648a9.2416 9.2416 0 0 0-0.66048 3.28704c0.06656 3.69152 0.07168 113.60256 0.01536 135.8336l-0.01536 3.86048c0 4.05504 2.4832 7.6032 6.2464 9.09312l493.39392 196.096c1.13664 0.42496 2.41152 0.71168 3.69152 0.71168s2.56512-0.20992 3.70176-0.71168l493.39392-196.096a10.1376 10.1376 0 0 0 6.31808-9.09312c-0.07168-4.03968-0.07168-135.72608 0-139.69408z" fill="#A11C24" /><path d="M15.97952 590.2848l493.39392 196.096c1.13664 0.42496 2.41664 0.71168 3.69664 0.71168 1.27488 0 2.54976-0.20992 3.70176-0.71168l493.38368-196.096a10.13248 10.13248 0 0 0 6.3232-9.09312c-0.08192-4.04992-0.08192-135.72608 0-139.6992a11.8272 11.8272 0 0 0-1.12128-4.18816c-1.08032 2.20672-2.9184 4.0448-5.25824 4.97152l-493.39904 196.096a9.20064 9.20064 0 0 1-3.69664 0.71168c-1.27488 0-2.55488-0.29184-3.69152-0.71168L15.98464 442.20416a10.19904 10.19904 0 0 1-4.52096-3.71712 8.8064 8.8064 0 0 1-0.73216-1.2544c-0.64 1.34656-1.07008 2.7648-1.07008 4.18304 0.06656 4.0448 0.06656 135.73632 0 139.70432 0.0256 1.5104 0.48128 2.90816 1.12128 4.20864 1.0752 2.2016 2.8416 4.0192 5.1968 4.95616z" fill="#A11C24" /><path d="M15.98464 364.43136l493.39392 196.096c1.13664 0.41984 2.41152 0.71168 3.69152 0.71168s2.56512-0.22016 3.70176-0.71168l493.39392-196.10112c0.57856-0.2304 1.07008-0.59904 1.5872-0.92672L519.61344 559.104a9.40544 9.40544 0 0 1-3.70176 0.71168c-1.26976 0-2.56-0.29184-3.69152-0.71168L18.82112 363.008a10.0352 10.0352 0 0 1-6.31808-9.15968c0.06656-3.97824 0.06656-135.6544 0-139.70432 0-1.42336 0.42496-2.8416 1.07008-4.18816 0.99328 2.2016 2.90816 3.97312 5.25312 4.97152l493.33248 196.16256c1.13152 0.42496 2.41152 0.71168 3.6864 0.71168 1.28 0 2.55488-0.21504 3.69664-0.71168l493.39904-196.096c1.152-0.45568 2.18112-1.13664 3.05152-1.96608l-0.02048-0.16896a9.96864 9.96864 0 0 0-5.86752-6.38464L516.70016 10.31168a10.73664 10.73664 0 0 0-3.69664-0.71168 9.2672 9.2672 0 0 0-3.69152 0.71168l-493.32736 196.096c-3.76832 1.4848-6.2464 5.11488-6.31296 9.15968 0.06656 4.0448 0.06656 135.72608 0 139.6992 0.03584 2.21696 0.84992 4.24448 2.1504 5.92384 1.0752 1.37728 2.46784 2.5344 4.16256 3.24096z m249.64608-94.39232c-31.73888 0-61.86496-5.18656-84.79744-14.4896-23.01952-9.4464-35.65568-21.94944-35.58912-35.2256 0.0768-12.70784 11.85792-24.36608 33.23904-32.73728 20.24448-7.95648 47.23712-12.35968 76.13952-12.35968 31.17056 0 60.93312 4.97152 83.6608 14.06464 23.65952 9.37472 36.64896 22.016 36.72064 35.51232 0.07168 12.49792-11.29472 24.00768-31.88736 32.38912-20.38784 8.30464-47.86688 12.84608-77.48608 12.84608z m320.04096 18.11456l-50.65216 96.45056a2.03776 2.03776 0 0 1-1.83808 1.13664c-0.29184 0-0.50176-0.0768-0.77824-0.14336L353.26976 312.51968a2.1504 2.1504 0 0 1-1.28-2.27328 2.19136 2.19136 0 0 1 1.84832-1.78176l229.83168-23.296a2.0992 2.0992 0 0 1 1.92 0.92672 1.96096 1.96096 0 0 1 0.08192 2.05824z m295.08608-64.84992l-123.58144 50.78528c-0.28672 0.0768-0.50688 0.14336-0.77824 0.14336a2.67264 2.67264 0 0 1-0.78336-0.14336l-140.62592-57.88672c-0.72192-0.3584-1.28-1.13664-1.2032-1.98656 0-0.85504 0.49664-1.63328 1.28-1.92l124.14464-49.28512a1.9968 1.9968 0 0 1 1.57184 0l139.99104 56.3968a2.02752 2.02752 0 0 1 1.26976 1.92512c-0.00512 0.91136-0.49664 1.69472-1.28512 1.9712zM594.89792 81.408a2.11968 2.11968 0 0 1 2.25792 1.13664 2.16576 2.16576 0 0 1-0.49664 2.56l-41.97376 35.36896 78.82752 30.464c0.98816 0.3584 1.50016 1.42336 1.28 2.41664a2.0992 2.0992 0 0 1-2.2016 1.56672l-109.23008-8.02304-45.3888 38.27712a1.8432 1.8432 0 0 1-1.34144 0.49664c-0.14336 0-0.28672 0-0.42496-0.06656a1.9456 1.9456 0 0 1-1.41824-1.06496l-21.44256-42.75712-108.66688-7.95648a2.05824 2.05824 0 0 1-1.92-1.98656 1.95584 1.95584 0 0 1 1.62304-2.1248l93.824-18.04288-19.95776-40.05376a2.04288 2.04288 0 0 1 0.2816-2.34496 2.21184 2.21184 0 0 1 2.27328-0.49664l79.82592 30.8224 94.26944-18.19136z" fill="#D72C25" /><path d="M1019.30496 217.56928l0.01536-3.3536a11.7248 11.7248 0 0 0-1.12128-4.18816 10.37824 10.37824 0 0 1-2.09408 2.88768l-0.11264 0.11264c-0.8704 0.83456-1.89952 1.5104-3.05152 1.96608l-493.39904 196.096a9.28768 9.28768 0 0 1-3.69664 0.71168 10.6496 10.6496 0 0 1-3.6864-0.71168L18.82624 214.93248c-2.34496-0.9984-4.25984-2.76992-5.25312-4.97152-0.64512 1.34656-1.07008 2.7648-1.07008 4.18816 0.06656 4.04992 0.06656 135.72608 0 139.70432 0.06656 4.0448 2.56 7.66976 6.31808 9.15968l493.39904 196.096c1.13152 0.41984 2.42176 0.71168 3.69152 0.71168 1.28 0 2.56-0.22016 3.70176-0.71168l492.13952-195.60448 1.24928-0.49152c2.69824-1.0752 4.66944-3.26656 5.65248-5.88288 0.36864-1.024 0.63488-2.09408 0.67584-3.21024-0.0768-3.72736-0.08192-115.39968-0.0256-136.35072z" fill="#A11C24" /></svg>