<?xml version="1.0" standalone="no"?><!DOCTYPE svg PUBLIC "-//W3C//DTD SVG 1.1//EN" "http://www.w3.org/Graphics/SVG/1.1/DTD/svg11.dtd"><svg class="icon" width="200px" height="200.00px" viewBox="0 0 1024 1024" version="1.1" xmlns="http://www.w3.org/2000/svg"><path d="M151.3048309167421 870.0138201689984c199.20612239587413 199.20612239587422 522.1842157706417 199.20612239587433 721.3924594868594-0.002121320343348998 199.2068295026554-199.20682950265532 199.20682950265544-522.1849228774227 0.0007071067813058107-721.391045273297C673.4897537941649-50.58759014085979 350.5109533126164-50.588297247641094 151.30412380996103 148.61853225501432-47.90341279947552 347.8260688644509-47.90341279947563 670.8055764527805 151.3048309167421 870.0138201689984zM454.59141464902666 182.04417690848373c36.738439923328265-36.738439923328265 96.30299385013947-36.73914703010943 133.04214088024892 1.4210854715202004e-14s36.738439923328244 96.30370095692066-1.4210854715202004e-14 133.04214088024892c-11.159559220686095 11.15955922068609-24.42841796965166 18.922884571333196-38.52034901191836 23.303411080783846L535.8337411666738 667.4659111252367a93.531 93.531 0 0 1 40.641669355477994 20.999657187678103l125.90955477842023-125.90955477842017c-32.2108352033908-36.955521705152535-30.728032283242587-93.07505139402288 4.458308255381205-128.26139193264666 36.738439923328265-36.738439923328265 96.30370095692066-36.738439923328244 133.04214088024892 1.4210854715202004e-14 36.73914703010944 36.73914703010945 36.73914703010943 96.30440806370183 0.0007071067811494913 133.0428479870301-32.63792769922748 32.63792769922746-83.28869354240106 36.27882051555699-119.94864461301762 10.926921089675702L592.0756003286893 706.12626727983c24.97076887082173 36.618231770526556 21.2188602898459 86.95292088250974-11.269867878551217 119.44164905090685-36.73914703010945 36.73914703010944-96.30440806370183 36.73914703010943-133.04355509381128-1.4210854715202004e-14-36.73914703010944-36.73914703010945-36.738439923328244-96.30370095692066 0.0007071067811921239-133.0428479870301 17.88909445723847-17.88909445723846 41.19038421767877-27.063804943133903 64.6330953343564-27.531202525498216l13.010764773832534-322.4520059295646c-20.538623566344455 0.9333809511662405-41.32332029254184-4.8337819561912525-58.80512124381684-17.292296333917037L339.06996559301797 452.781221289189c26.18204278699428 36.73914703010945 22.799243945797834 88.0694424900033-10.161831552431899 121.030517988233-36.73914703010945 36.73914703010944-96.30370095692066 36.739854136890614-133.0428479870301 0.0007071067811494913s-36.738439923328244-96.30370095692066 0.0007071067811921239-133.0428479870301c34.87167802099579-34.871678020995766 90.30460702533401-36.63944497396213 127.2671997982984-5.312493247054519l126.14572844333654-126.14572844333648c-31.327658833688794-36.961885666183214-29.55989188072241-92.39481467052141 5.312493247054569-127.26719979829838z" fill="#1fb5ad" /></svg>